<?xml version="1.0" encoding="utf-8"?>
<!-- Generator: Adobe Illustrator 22.0.0, SVG Export Plug-In . SVG Version: 6.00 Build 0)  -->
<svg version="1.1" id="Layer_1" xmlns="http://www.w3.org/2000/svg" xmlns:xlink="http://www.w3.org/1999/xlink" x="0px" y="0px"
	 viewBox="0 0 100 100" style="enable-background:new 0 0 100 100;" xml:space="preserve">
<style type="text/css">
	.st0{fill:#FFFF00;}
</style>
<g>
	<path class="st0" d="M58.1,19c0.1,0,0.3,0.1,0.4,0.1"/>
</g>
<g>
	<polygon class="st0" points="62.4,28.5 50,7.1 37.6,28.5 50,28.5 	"/>
	<polygon class="st0" points="37.6,28.5 25.3,50 50,50 43.8,39.2 	"/>
	<polygon class="st0" points="62.4,28.5 56.2,39.2 50,50 74.8,50 	"/>
</g>
<g>
	<polygon class="st0" points="87.2,71.4 74.8,50 62.4,71.4 74.8,71.4 	"/>
	<polygon class="st0" points="62.4,71.4 50,92.9 74.8,92.9 68.6,82.2 	"/>
	<polygon class="st0" points="87.2,71.4 80.9,82.2 74.8,92.9 99.5,92.9 	"/>
</g>
<g>
	<polygon class="st0" points="37.7,71.4 25.3,50 12.9,71.4 25.3,71.4 	"/>
	<polygon class="st0" points="12.9,71.4 0.5,92.9 25.3,92.9 19.1,82.2 	"/>
	<polygon class="st0" points="37.7,71.4 31.5,82.2 25.3,92.9 50,92.9 	"/>
</g>
</svg>
