<?xml version="1.0" encoding="utf-8"?>
<!-- Generator: Adobe Illustrator 22.1.0, SVG Export Plug-In . SVG Version: 6.00 Build 0)  -->
<svg version="1.1" id="Layer_1" xmlns="http://www.w3.org/2000/svg" xmlns:xlink="http://www.w3.org/1999/xlink" x="0px" y="0px"
	 viewBox="0 0 100 100" style="enable-background:new 0 0 100 100;" xml:space="preserve">
<style type="text/css">
	.st0{fill:#FFFF00;stroke:#FFFFFF;stroke-width:0.25;stroke-miterlimit:10;}
	.st1{fill:#FFFF00;}
	.st2{fill:#FFFF00;stroke:#FFFFFF;stroke-width:0.5;stroke-miterlimit:10;}
</style>
<g>
	<g>
		<path class="st0" d="M50,99.5C22.7,99.5,0.5,77.3,0.5,50S22.7,0.5,50,0.5S99.5,22.7,99.5,50S77.3,99.5,50,99.5z M50,1.5
			C23.2,1.5,1.4,23.2,1.4,50s21.7,48.5,48.5,48.5S98.4,76.8,98.4,50S76.7,1.5,50,1.5z"/>
	</g>
</g>
<g>
	<path class="st1" d="M56.7,13.8c0.1,0,0.2,0.1,0.3,0.1"/>
</g>
<g>
	<g>
		<polygon class="st2" points="60.5,19.7 50,1.5 39.5,19.7 50,19.7 		"/>
		<polygon class="st2" points="39.5,19.7 29.1,38 50,38 44.7,28.8 		"/>
		<polygon class="st2" points="60.5,19.7 55.3,28.8 50,38 71,38 		"/>
	</g>
	<g>
		<polygon class="st2" points="81.6,56.2 71,38 60.5,56.2 71,56.2 		"/>
		<polygon class="st2" points="60.5,56.2 50,74.4 71,74.4 65.9,65.4 		"/>
		<polygon class="st2" points="81.6,56.2 76.3,65.4 71,74.4 92,74.4 		"/>
	</g>
	<g>
		<polygon class="st2" points="39.6,56.2 29.1,38 18.5,56.2 29.1,56.2 		"/>
		<polygon class="st2" points="18.5,56.2 8,74.4 29.1,74.4 23.7,65.4 		"/>
		<polygon class="st2" points="39.6,56.2 34.2,65.4 29.1,74.4 50,74.4 		"/>
	</g>
</g>
</svg>
