<?xml version="1.0" encoding="utf-8"?>
<!-- Generator: Adobe Illustrator 22.1.0, SVG Export Plug-In . SVG Version: 6.00 Build 0)  -->
<svg version="1.1" id="Layer_1" xmlns="http://www.w3.org/2000/svg" xmlns:xlink="http://www.w3.org/1999/xlink" x="0px" y="0px"
	 viewBox="0 0 187.1 187.1" style="enable-background:new 0 0 187.1 187.1;" xml:space="preserve">
<style type="text/css">
	.st0{fill:none;stroke:#231F20;stroke-width:0.75;stroke-linecap:round;stroke-linejoin:round;}
	.st1{stroke:#FFFFFF;stroke-linecap:round;stroke-linejoin:round;stroke-miterlimit:10;}
	.st2{fill:#00FFFF;}
	.st3{fill:#000080;}
	.st4{fill:#0000FF;}
</style>
<g>
	<path class="st0" d="M14.1,139.4"/>
</g>
<g>
	<path class="st0" d="M14.1,139.4"/>
</g>
<g>
	<path class="st0" d="M14.1,47.7"/>
</g>
<g>
	<path class="st0" d="M14.1,139.4"/>
</g>
<g>
	<path class="st0" d="M14.1,47.7"/>
</g>
<g>
	<path class="st0" d="M14.1,139.4"/>
</g>
<g>
	<g>
		<g>
			<g>
				<path class="st1" d="M93.5,93.6"/>
			</g>
		</g>
		<g>
			<g>
				<path class="st1" d="M93.2,185.3"/>
			</g>
		</g>
		<g>
			<g>
				<path class="st1" d="M93.5,93.6"/>
			</g>
		</g>
		<g>
			<g>
				<path class="st1" d="M14.3,47.4"/>
			</g>
		</g>
		<g>
			<g>
				<path class="st1" d="M93.5,93.5"/>
			</g>
		</g>
		<g>
			<g>
				<path class="st1" d="M173.2,47.9"/>
			</g>
		</g>
	</g>
	<g>
		<g>
			<g>
				<polygon class="st2" points="173.2,47.9 146.6,93.7 133.2,116.6 93.7,47.7 				"/>
			</g>
		</g>
		<g>
			<g>
				<polygon class="st2" points="93.7,47.7 53.8,116.4 40.6,93.4 14.3,47.4 				"/>
			</g>
		</g>
		<g>
			<g>
				<polygon class="st2" points="133.2,116.6 119.8,139.5 93.2,185.3 66.9,139.3 53.8,116.4 				"/>
			</g>
		</g>
		<g>
			<g>
				<path class="st1" d="M66.9,139.3"/>
			</g>
		</g>
		<g>
			<g>
				<path class="st1" d="M119.8,139.5"/>
			</g>
		</g>
		<g>
			<g>
				<polygon class="st3" points="66.9,139.3 14,139.2 53.8,116.4 				"/>
			</g>
		</g>
		<g>
			<g>
				<polygon class="st3" points="172.9,139.7 119.8,139.5 133.2,116.6 				"/>
			</g>
		</g>
		<g>
			<g>
				<polygon class="st3" points="172.9,139.7 172.9,139.7 133.2,116.6 133.2,116.6 146.6,93.7 				"/>
			</g>
		</g>
		<g>
			<g>
				<path class="st1" d="M40.6,93.4"/>
			</g>
		</g>
		<g>
			<g>
				<path class="st1" d="M67.2,47.6"/>
			</g>
		</g>
		<g>
			<g>
				<polygon class="st3" points="53.8,116.4 14,139.2 40.6,93.4 				"/>
			</g>
		</g>
		<g>
			<g>
				<path class="st1" d="M146.6,93.7"/>
			</g>
		</g>
		<g>
			<g>
				<path class="st1" d="M120.2,47.8"/>
			</g>
		</g>
		<g>
			<g>
				<g>
					<polygon class="st3" points="120.2,47.7 67.2,47.6 93.8,1.8 					"/>
				</g>
			</g>
		</g>
	</g>
	<g>
		<g>
			<polygon class="st4" points="93.7,47.7 93.5,93.6 93.5,93.6 53.8,116.4 			"/>
		</g>
	</g>
	<g>
		<g>
			<polygon class="st4" points="133.2,116.6 53.8,116.4 93.5,93.6 93.5,93.6 			"/>
		</g>
	</g>
	<g>
		<g>
			<polygon class="st4" points="133.2,116.6 133.2,116.6 93.5,93.6 93.7,47.7 			"/>
		</g>
	</g>
	<g>
		<g>
			<g>
				<path class="st1" d="M133.4,70.7"/>
			</g>
		</g>
		<g>
			<g>
				<path class="st1" d="M53.9,70.5"/>
			</g>
		</g>
		<g>
			<g>
				<path class="st1" d="M133.4,70.7"/>
			</g>
		</g>
		<g>
			<g>
				<path class="st1" d="M53.9,70.5"/>
			</g>
		</g>
		<g>
			<g>
				<path class="st1" d="M133.4,70.7"/>
			</g>
		</g>
		<g>
			<g>
				<path class="st1" d="M93.2,185.3"/>
			</g>
		</g>
		<g>
			<g>
				<path class="st1" d="M54,70.5"/>
			</g>
		</g>
		<g>
			<g>
				<path class="st1" d="M93.2,185.3"/>
			</g>
		</g>
		<g>
			<g>
				<path class="st1" d="M53.8,116.3"/>
			</g>
		</g>
		<g>
			<g>
				<path class="st1" d="M172.9,139.7"/>
			</g>
		</g>
		<g>
			<g>
				<path class="st1" d="M93.7,47.7"/>
			</g>
		</g>
		<g>
			<g>
				<path class="st1" d="M172.9,139.7"/>
			</g>
		</g>
		<g>
			<g>
				<path class="st1" d="M173.2,47.9"/>
			</g>
		</g>
		<g>
			<g>
				<path class="st1" d="M54,70.5"/>
			</g>
		</g>
		<g>
			<g>
				<path class="st1" d="M173.2,47.9"/>
			</g>
		</g>
		<g>
			<g>
				<path class="st1" d="M133.2,116.6"/>
			</g>
		</g>
		<g>
			<g>
				<path class="st1" d="M93.9,2"/>
			</g>
		</g>
		<g>
			<g>
				<path class="st1" d="M53.8,116.4"/>
			</g>
		</g>
		<g>
			<g>
				<path class="st1" d="M93.9,2"/>
			</g>
		</g>
		<g>
			<g>
				<path class="st1" d="M14.3,47.5"/>
			</g>
		</g>
		<g>
			<g>
				<path class="st1" d="M14.3,47.5"/>
			</g>
		</g>
		<g>
			<g>
				<path class="st1" d="M93.8,47.7"/>
			</g>
		</g>
		<g>
			<g>
				<path class="st1" d="M14,139.2"/>
			</g>
		</g>
		<g>
			<g>
				<path class="st1" d="M133.2,116.6"/>
			</g>
		</g>
		<g>
			<g>
				<path class="st1" d="M14,139.2"/>
			</g>
		</g>
	</g>
</g>
<g>
	<g>
		<path class="st4" d="M93.6,187.1C42,187.1,0,145.2,0,93.6S42,0,93.6,0s93.6,42,93.6,93.6C187.1,145.2,145.2,187.1,93.6,187.1z
			 M93.6,1.8C43,1.8,1.8,43,1.8,93.6s41.1,91.7,91.7,91.7s91.7-41.1,91.7-91.7S144.1,1.8,93.6,1.8z"/>
	</g>
</g>
</svg>
