<?xml version="1.0" encoding="utf-8"?>
<!-- Generator: Adobe Illustrator 22.1.0, SVG Export Plug-In . SVG Version: 6.00 Build 0)  -->
<svg version="1.1" id="Layer_1" xmlns="http://www.w3.org/2000/svg" xmlns:xlink="http://www.w3.org/1999/xlink" x="0px" y="0px"
	 viewBox="0 0 100 100" style="enable-background:new 0 0 100 100;" xml:space="preserve">
<style type="text/css">
	.st0{fill:none;stroke:#FFFFFF;stroke-width:0.5;stroke-linecap:round;stroke-linejoin:round;}
	.st1{fill:#1A1AFF;stroke:#FFFFFF;stroke-width:0.5;stroke-linecap:round;stroke-linejoin:round;}
	.st2{fill:#4F0A75;stroke:#FFFFFF;stroke-width:0.5;stroke-linecap:round;stroke-linejoin:round;}
	.st3{fill:#FFFF00;stroke:#FFFFFF;stroke-width:0.5;stroke-linecap:round;stroke-linejoin:round;}
</style>
<polygon class="st0" points="71.4,37.6 50,74.8 28.6,37.6 "/>
<polygon class="st1" points="92.9,74.8 50,74.8 50,74.8 71.4,37.6 71.4,37.6 "/>
<polygon class="st1" points="71.5,37.7 28.5,37.7 28.5,37.7 50,0.4 50,0.4 "/>
<polygon class="st2" points="92.9,74.8 50,99.5 50,74.8 "/>
<polygon class="st2" points="50,74.8 50,99.5 7.1,74.8 "/>
<polygon class="st2" points="50,0.5 28.6,37.6 7.1,25.2 "/>
<polygon class="st2" points="92.8,25.2 71.3,37.6 50,0.5 "/>
<polygon class="st1" points="50,74.8 50,74.8 7.1,74.8 28.6,37.6 "/>
<polygon class="st2" points="28.6,37.6 7.1,74.8 7.1,25.2 "/>
<polygon class="st2" points="92.9,25.2 92.9,74.8 71.4,37.6 71.4,37.6 "/>
<polygon class="st3" points="28.6,37.6 28.6,37.6 71.4,37.6 50,74.8 "/>
</svg>
