<?xml version="1.0" encoding="utf-8"?>
<!-- Generator: Adobe Illustrator 22.1.0, SVG Export Plug-In . SVG Version: 6.00 Build 0)  -->
<svg version="1.1" id="Layer_1" xmlns="http://www.w3.org/2000/svg" xmlns:xlink="http://www.w3.org/1999/xlink" x="0px" y="0px"
	 viewBox="0 0 100 100" style="enable-background:new 0 0 100 100;" xml:space="preserve">
<style type="text/css">
	.st0{fill:none;stroke:#FFFFFF;stroke-width:0.5;stroke-linecap:round;stroke-linejoin:round;}
	.st1{fill:#1A1AFF;stroke:#FFFFFF;stroke-width:0.5;stroke-linecap:round;stroke-linejoin:round;}
	.st2{fill:#4F0A75;stroke:#FFFFFF;stroke-width:0.5;stroke-linecap:round;stroke-linejoin:round;}
	.st3{fill:#FFFF00;stroke:#FFFFFF;stroke-width:0.5;stroke-linecap:round;stroke-linejoin:round;}
	.st4{fill:#4F0A75;stroke:#FFFFFF;stroke-width:0.25;stroke-miterlimit:10;}
</style>
<g>
	<polygon class="st0" points="70.6,38 49.9,74.1 29.2,38 	"/>
	<polygon class="st1" points="91.5,74.1 49.9,74.1 49.9,74.1 70.6,38 70.6,38 	"/>
	<polygon class="st1" points="70.7,38.1 29.1,38.1 29.1,38.1 49.9,2 49.9,2 	"/>
	<polygon class="st2" points="91.5,74.1 49.9,98 49.9,74.1 	"/>
	<polygon class="st2" points="49.9,74.1 49.9,98 8.3,74.1 	"/>
	<polygon class="st2" points="49.9,2 29.2,38 8.3,26 	"/>
	<polygon class="st2" points="91.4,26 70.6,38 49.9,2 	"/>
	<polygon class="st1" points="49.9,74.1 49.9,74.1 8.3,74.1 29.2,38 	"/>
	<polygon class="st2" points="29.2,38 8.3,74.1 8.3,26 	"/>
	<polygon class="st2" points="91.5,26 91.5,74.1 70.6,38 70.6,38 	"/>
	<polygon class="st3" points="29.2,38 29.2,38 70.6,38 49.9,74.1 	"/>
</g>
<g>
	<g>
		<path class="st4" d="M50,99C23,99,1,77,1,50S23,1,50,1s49,22,49,49S77,99,50,99z M50,2C23.5,2,1.9,23.5,1.9,50s21.5,48,48,48
			s48-21.5,48-48S76.4,2,50,2z"/>
	</g>
</g>
</svg>
