<?xml version="1.0" encoding="utf-8"?>
<!-- Generator: Adobe Illustrator 22.1.0, SVG Export Plug-In . SVG Version: 6.00 Build 0)  -->
<svg version="1.1" id="Layer_1" xmlns="http://www.w3.org/2000/svg" xmlns:xlink="http://www.w3.org/1999/xlink" x="0px" y="0px"
	 viewBox="0 0 100 100" style="enable-background:new 0 0 100 100;" xml:space="preserve">
<style type="text/css">
	.st0{fill:#00FF00;stroke:#FFFFFF;stroke-width:0.5;stroke-miterlimit:10;}
	.st1{fill:#00FF00;stroke:#FFFFFF;stroke-width:0.25;stroke-miterlimit:10;}
	.st2{fill:#FFFF00;}
</style>
<polygon class="st0" points="50,98.5 98.4,50 50,1.5 "/>
<rect x="2.1" y="41.4" class="st0" width="17.1" height="17.1"/>
<g>
	<g>
		<path class="st1" d="M50,99.5C22.7,99.5,0.5,77.3,0.5,50S22.7,0.5,50,0.5S99.5,22.7,99.5,50S77.3,99.5,50,99.5z M50,1.5
			C23.2,1.5,1.4,23.2,1.4,50s21.7,48.5,48.5,48.5S98.4,76.8,98.4,50S76.7,1.5,50,1.5z"/>
	</g>
</g>
<g>
	<path class="st2" d="M56.7,13.8c0.1,0,0.2,0.1,0.3,0.1"/>
</g>
<rect x="19.3" y="34.7" class="st0" width="30.7" height="30.7"/>
</svg>
