<?xml version="1.0" encoding="utf-8"?>
<!-- Generator: Adobe Illustrator 22.0.0, SVG Export Plug-In . SVG Version: 6.00 Build 0)  -->
<svg version="1.1" id="Layer_1" xmlns="http://www.w3.org/2000/svg" xmlns:xlink="http://www.w3.org/1999/xlink" x="0px" y="0px"
	 viewBox="0 0 100 100" style="enable-background:new 0 0 100 100;" xml:space="preserve">
<style type="text/css">
	.st0{fill:#FFFF00;}
</style>
<g>
	<path class="st0" d="M41.8,81.5L50,100l8.2-18.5c-2.7,0.7-5.4,1-8.2,1S44.4,82.2,41.8,81.5z"/>
	<path class="st0" d="M58.2,18.5L50,0l-8.2,18.5c2.7-0.7,5.4-1,8.2-1C52.8,17.4,55.6,17.8,58.2,18.5z"/>
	<path class="st0" d="M41.4,18.6L25,6.7l2.1,20.1c3-2.9,6.4-5.2,10.2-6.8C38.6,19.4,40,19,41.4,18.6z"/>
	<path class="st0" d="M58.6,81.4L75,93.3l-2.1-20.1c-3,2.9-6.4,5.2-10.2,6.8C61.4,80.6,60,81,58.6,81.4z"/>
	<path class="st0" d="M26.8,27.1L6.7,25l11.9,16.4c0.4-1.4,0.8-2.7,1.4-4C21.6,33.5,23.9,30.1,26.8,27.1z"/>
	<path class="st0" d="M73.2,72.9L93.3,75L81.4,58.6c-0.4,1.4-0.8,2.7-1.4,4C78.4,66.5,76.1,69.9,73.2,72.9z"/>
	<path class="st0" d="M18.5,41.8L0,50l18.5,8.2c-0.7-2.7-1-5.4-1-8.2C17.4,47.2,17.8,44.4,18.5,41.8z"/>
	<path class="st0" d="M81.5,58.2L100,50l-18.5-8.2c0.7,2.7,1,5.4,1,8.2C82.6,52.8,82.2,55.6,81.5,58.2z"/>
	<path class="st0" d="M18.6,58.6L6.7,75l20.1-2.1c-2.9-3-5.2-6.4-6.8-10.2C19.4,61.4,19,60,18.6,58.6z"/>
	<path class="st0" d="M81.4,41.4L93.3,25l-20.1,2.1c2.9,3,5.2,6.4,6.8,10.2C80.6,38.6,81,40,81.4,41.4z"/>
	<path class="st0" d="M72.9,26.8L75,6.7L58.6,18.6c1.4,0.4,2.7,0.8,4,1.4C66.5,21.6,69.9,23.9,72.9,26.8z"/>
	<path class="st0" d="M27.1,73.2L25,93.3l16.4-11.9c-1.4-0.4-2.7-0.8-4-1.4C33.5,78.4,30.1,76.1,27.1,73.2z"/>
	<path class="st0" d="M58.1,19c0.1,0,0.3,0.1,0.4,0.1"/>
</g>
<polygon class="st0" points="50,16.9 64.3,41.7 78.7,66.6 50,66.6 21.3,66.6 35.7,41.7 "/>
</svg>
