<?xml version="1.0" encoding="utf-8"?>
<!-- Generator: Adobe Illustrator 22.1.0, SVG Export Plug-In . SVG Version: 6.00 Build 0)  -->
<svg version="1.1" id="Layer_1" xmlns="http://www.w3.org/2000/svg" xmlns:xlink="http://www.w3.org/1999/xlink" x="0px" y="0px"
	 viewBox="0 0 100 100" style="enable-background:new 0 0 100 100;" xml:space="preserve">
<style type="text/css">
	.st0{fill:none;stroke:#FFFFFF;stroke-width:0.5;stroke-linecap:round;stroke-linejoin:round;stroke-miterlimit:10;}
	.st1{fill:#FFFF00;stroke:#FFFFFF;stroke-width:0.5;stroke-linecap:round;stroke-linejoin:round;stroke-miterlimit:10;}
	.st2{fill:#FFFF00;stroke:#FFFFFF;stroke-width:0.5;stroke-miterlimit:10;}
</style>
<g>
	<line class="st0" x1="50" y1="17.8" x2="50" y2="17.8"/>
	<line class="st0" x1="50" y1="66.1" x2="50" y2="66.1"/>
	<line class="st0" x1="50" y1="33.9" x2="50" y2="33.9"/>
	<line class="st0" x1="50" y1="50" x2="50" y2="50"/>
	<line class="st0" x1="63.9" y1="42" x2="63.9" y2="42"/>
	<line class="st0" x1="36.1" y1="58.1" x2="36.1" y2="58.1"/>
	<polygon class="st1" points="50,17.8 50,50 43,54 36.1,58.1 22.1,66.1 31.4,50 36.1,42 36.1,42 36.1,42 36.1,42 40.7,33.9 	"/>
	<line class="st0" x1="36.1" y1="42" x2="36.1" y2="42"/>
	<line class="st0" x1="50" y1="66.1" x2="50" y2="66.1"/>
	<line class="st0" x1="50" y1="66.1" x2="50" y2="66.1"/>
	<line class="st0" x1="50" y1="66.1" x2="50" y2="66.1"/>
	<polygon class="st1" points="77.9,66.1 22.1,66.1 36.1,58.1 43,54 50,50 57,54 63.9,58.1 63.9,58.1 	"/>
	<polygon class="st1" points="77.9,66.1 77.9,66.1 63.9,58.1 63.9,58.1 57,54 50,50 50,17.8 59.3,33.9 63.9,41.9 63.9,42 63.9,42 
		68.6,50 	"/>
	<line class="st0" x1="36.1" y1="58.1" x2="36.1" y2="58.1"/>
	<line class="st0" x1="36.1" y1="58.1" x2="36.1" y2="58.1"/>
	<line class="st0" x1="50" y1="66.1" x2="50" y2="66.1"/>
	<path class="st1" d="M43,54"/>
	<path class="st1" d="M36.1,42"/>
	<path class="st1" d="M50,66.1"/>
	<path class="st1" d="M43,54"/>
	<path class="st1" d="M63.9,42"/>
	<path class="st1" d="M57,54"/>
	<path class="st1" d="M50,66.1"/>
	<path class="st1" d="M57,54"/>
	<line class="st0" x1="50" y1="66.1" x2="50" y2="66.1"/>
	<line class="st0" x1="63.9" y1="42" x2="63.9" y2="42"/>
	<path class="st1" d="M36.1,42"/>
	<path class="st1" d="M50,42"/>
	<path class="st1" d="M50,42"/>
	<path class="st1" d="M63.9,42"/>
	<line class="st0" x1="36.1" y1="58.1" x2="36.1" y2="58.1"/>
	<line class="st0" x1="36.1" y1="58.1" x2="36.1" y2="58.1"/>
	<line class="st0" x1="36.1" y1="58.1" x2="36.1" y2="58.1"/>
	<line class="st0" x1="50" y1="66.1" x2="50" y2="66.1"/>
	<line class="st0" x1="63.9" y1="42" x2="63.9" y2="42"/>
	<line class="st0" x1="63.9" y1="58.1" x2="63.9" y2="58.1"/>
</g>
<path class="st2" d="M58,19.4L50,1.5l-8,17.9c2.6-0.7,5.2-1,8-1C52.7,18.4,55.4,18.8,58,19.4z"/>
<path class="st2" d="M57.9,19.9c0.1,0,0.3,0.1,0.4,0.1"/>
</svg>
