<?xml version="1.0" encoding="utf-8"?>
<!-- Generator: Adobe Illustrator 22.1.0, SVG Export Plug-In . SVG Version: 6.00 Build 0)  -->
<svg version="1.1" id="Layer_1" xmlns="http://www.w3.org/2000/svg" xmlns:xlink="http://www.w3.org/1999/xlink" x="0px" y="0px"
	 viewBox="0 0 100 100" style="enable-background:new 0 0 100 100;" xml:space="preserve">
<style type="text/css">
	.st0{fill:none;stroke:#FFFFFF;stroke-width:0.5;stroke-linecap:round;stroke-linejoin:round;stroke-miterlimit:10;}
	.st1{fill:#FFFF00;stroke:#FFFFFF;stroke-width:0.5;stroke-linecap:round;stroke-linejoin:round;stroke-miterlimit:10;}
	.st2{fill:#FFFF00;}
</style>
<g>
	<line class="st0" x1="50" y1="2" x2="50" y2="2"/>
	<line class="st0" x1="50" y1="74.9" x2="50" y2="74.9"/>
	<line class="st0" x1="50" y1="26.3" x2="50" y2="26.3"/>
	<line class="st0" x1="50" y1="50.6" x2="50" y2="50.6"/>
	<line class="st0" x1="71" y1="38.5" x2="71" y2="38.5"/>
	<line class="st0" x1="29" y1="62.8" x2="29" y2="62.8"/>
	<polygon class="st1" points="50,2 50,50.6 39.5,56.7 29,62.8 7.9,74.9 21.9,50.6 29,38.5 29,38.5 29,38.5 29,38.5 36,26.3 	"/>
	<line class="st0" x1="29" y1="38.5" x2="29" y2="38.5"/>
	<line class="st0" x1="50" y1="74.9" x2="50" y2="74.9"/>
	<line class="st0" x1="50" y1="74.9" x2="50" y2="74.9"/>
	<line class="st0" x1="50" y1="74.9" x2="50" y2="74.9"/>
	<polygon class="st1" points="92.1,74.9 7.9,74.9 29,62.8 39.5,56.7 50,50.6 60.5,56.7 71,62.8 71,62.8 	"/>
	<polygon class="st1" points="92.1,74.9 92.1,74.9 71,62.8 71,62.8 60.5,56.7 50,50.6 50,2 64,26.3 71,38.4 71,38.5 71,38.5 
		78.1,50.6 	"/>
	<line class="st0" x1="29" y1="62.8" x2="29" y2="62.8"/>
	<line class="st0" x1="29" y1="62.8" x2="29" y2="62.8"/>
	<line class="st0" x1="50" y1="74.9" x2="50" y2="74.9"/>
	<path class="st1" d="M39.5,56.7"/>
	<path class="st1" d="M29,38.5"/>
	<path class="st1" d="M50,74.9"/>
	<path class="st1" d="M39.5,56.7"/>
	<path class="st1" d="M71,38.5"/>
	<path class="st1" d="M60.5,56.7"/>
	<path class="st1" d="M50,74.9"/>
	<path class="st1" d="M60.5,56.7"/>
	<line class="st0" x1="50" y1="74.9" x2="50" y2="74.9"/>
	<line class="st0" x1="71" y1="38.5" x2="71" y2="38.5"/>
	<path class="st1" d="M29,38.5"/>
	<path class="st1" d="M50,38.5"/>
	<path class="st1" d="M50,38.5"/>
	<path class="st1" d="M71,38.5"/>
	<line class="st0" x1="29" y1="62.8" x2="29" y2="62.8"/>
	<line class="st0" x1="29" y1="62.8" x2="29" y2="62.8"/>
	<line class="st0" x1="29" y1="62.8" x2="29" y2="62.8"/>
	<line class="st0" x1="50" y1="74.9" x2="50" y2="74.9"/>
	<line class="st0" x1="71" y1="38.5" x2="71" y2="38.5"/>
	<line class="st0" x1="71" y1="62.8" x2="71" y2="62.8"/>
</g>
<g>
	<g>
		<path class="st2" d="M50,99C23,99,1,77,1,50S23,1,50,1s49,22,49,49S77,99,50,99z M50,2C23.5,2,1.9,23.5,1.9,50s21.5,48,48,48
			s48-21.5,48-48S76.4,2,50,2z"/>
	</g>
</g>
<g>
	<path class="st2" d="M56.6,14.2c0.1,0,0.2,0.1,0.3,0.1"/>
</g>
</svg>
