<svg xmlns:dc="http://purl.org/dc/elements/1.1/" xmlns:cc="http://creativecommons.org/ns#" xmlns:rdf="http://www.w3.org/1999/02/22-rdf-syntax-ns#" xmlns:svg="http://www.w3.org/2000/svg" xmlns="http://www.w3.org/2000/svg" xmlns:sodipodi="http://sodipodi.sourceforge.net/DTD/sodipodi-0.dtd" xmlns:inkscape="http://www.inkscape.org/namespaces/inkscape" viewBox="0 0 8.4666665 10.583333625" version="1.1" x="0px" y="0px"><g transform="translate(0,-288.53332)"><path style="color:#000000;font-style:normal;font-variant:normal;font-weight:normal;font-stretch:normal;font-size:medium;line-height:normal;font-family:sans-serif;font-variant-ligatures:normal;font-variant-position:normal;font-variant-caps:normal;font-variant-numeric:normal;font-variant-alternates:normal;font-feature-settings:normal;text-indent:0;text-align:start;text-decoration:none;text-decoration-line:none;text-decoration-style:solid;text-decoration-color:#000000;letter-spacing:normal;word-spacing:normal;text-transform:none;writing-mode:lr-tb;direction:ltr;text-orientation:mixed;dominant-baseline:auto;baseline-shift:baseline;text-anchor:start;white-space:normal;shape-padding:0;clip-rule:nonzero;display:inline;overflow:visible;visibility:visible;opacity:1;isolation:auto;mix-blend-mode:normal;color-interpolation:sRGB;color-interpolation-filters:linearRGB;solid-color:#000000;solid-opacity:1;vector-effect:none;fill:#000000;fill-opacity:1;fill-rule:evenodd;stroke:none;stroke-width:0.5291667;stroke-linecap:round;stroke-linejoin:round;stroke-miterlimit:4;stroke-dasharray:none;stroke-dashoffset:0;stroke-opacity:1;color-rendering:auto;image-rendering:auto;shape-rendering:auto;text-rendering:auto;enable-background:accumulate" d="m 7.6683988,289.04599 c -0.023865,7.6e-4 -0.047495,0.005 -0.070279,0.0119 l -3.7021003,1.08986 c -0.1401048,0.0412 -0.1917197,0.15153 -0.1917197,0.25425 v 1.5875 2.12441 c -0.2219987,-0.16841 -0.4953106,-0.27233 -0.79375,-0.27233 -0.7274931,0 -1.3229167,0.59542 -1.3229167,1.32292 0,0.72749 0.5954236,1.32291 1.3229167,1.32291 0.718431,0 1.3067876,-0.58093 1.3213662,-1.29604 0.00106,-0.009 0.00159,-0.0179 0.00159,-0.0269 v -2.97708 l 3.175,-0.93483 v 1.80299 c -0.2220357,-0.16842 -0.4953476,-0.27233 -0.793787,-0.27233 -0.7274931,0 -1.3229167,0.59542 -1.3229167,1.32291 0,0.72749 0.5954236,1.32292 1.3229167,1.32292 0.727493,0 1.3229166,-0.59543 1.3229166,-1.32292 0,-0.005 -5.291e-4,-0.009 -5.291e-4,-0.0134 2.645e-4,-0.006 5.291e-4,-0.0124 5.291e-4,-0.0186 v -3.175 -1.54616 c 0.026702,-0.1642 -0.102952,-0.31202 -0.2692347,-0.30695 z m -5.8203148,0.0294 c -0.145923,0.002 -0.2624481,0.12227 -0.2604505,0.2682 v 0.79375 H 0.79388351 c -0.35780128,-0.005 -0.35780128,0.53423 0,0.52917 H 1.5876335 v 0.79375 c -0.00505,0.3578 0.5342282,0.3578 0.5291667,0 v -0.79375 h 0.79375 c 0.3578013,0.005 0.3578013,-0.53423 0,-0.52917 h -0.79375 v -0.79375 c 0.00212,-0.14916 -0.1195573,-0.27053 -0.2687162,-0.2682 z"/></g><text x="0" y="23.4666669" fill="#000000" font-size="5px" font-weight="bold" font-family="'Helvetica Neue', Helvetica, Arial-Unicode, Arial, Sans-serif">Created by Nawicon Studio</text><text x="0" y="28.4666669" fill="#000000" font-size="5px" font-weight="bold" font-family="'Helvetica Neue', Helvetica, Arial-Unicode, Arial, Sans-serif">from the Noun Project</text></svg>